<svg width="12" height="9" viewBox="0 0 12 9" fill="none" xmlns="http://www.w3.org/2000/svg">
<path d="M5.71919 8.37729L0.271716 2.29116C0.129011 2.13165 0.0380905 1.93757 0.00960956 1.73167C-0.0188714 1.52578 0.016266 1.31659 0.110905 1.12862C0.205543 0.940646 0.355764 0.78168 0.543962 0.670346C0.732161 0.559012 0.950543 0.499922 1.17352 0.5H10.8279C11.0508 0.500182 11.269 0.55946 11.457 0.670895C11.6449 0.782331 11.7949 0.941313 11.8894 1.12923C11.9839 1.31716 12.0189 1.52624 11.9903 1.73201C11.9618 1.93779 11.8709 2.13174 11.7283 2.29116L6.28227 8.37729C6.24787 8.4157 6.20482 8.4466 6.15617 8.4678C6.10751 8.48901 6.05445 8.5 6.00073 8.5C5.94701 8.5 5.89395 8.48901 5.8453 8.4678C5.79665 8.4466 5.7536 8.4157 5.71919 8.37729Z" fill="white"/>
</svg>
