<svg width="47" height="50" viewBox="0 0 47 50" fill="none" xmlns="http://www.w3.org/2000/svg">
<path d="M25.5326 48.1414L25.5061 48.1462L25.335 48.2305L25.2868 48.2402L25.253 48.2305L25.0819 48.1462C25.0562 48.1381 25.0369 48.1422 25.024 48.1582L25.0144 48.1823L24.9734 49.214L24.9855 49.2622L25.0096 49.2935L25.2603 49.4719L25.2964 49.4815L25.3253 49.4719L25.576 49.2935L25.6049 49.255L25.6146 49.214L25.5736 48.1847C25.5672 48.159 25.5535 48.1446 25.5326 48.1414ZM26.1714 47.869L26.14 47.8738L25.6941 48.098L25.67 48.1221L25.6628 48.1486L25.7062 49.1851L25.7182 49.214L25.7375 49.2309L26.222 49.455C26.2525 49.4631 26.2758 49.4566 26.2919 49.4357L26.3015 49.402L26.2196 47.922C26.2116 47.8931 26.1955 47.8754 26.1714 47.869ZM24.4479 47.8738C24.4373 47.8674 24.4246 47.8653 24.4125 47.868C24.4004 47.8707 24.3898 47.8779 24.3829 47.8883L24.3684 47.922L24.2865 49.402C24.2881 49.4309 24.3017 49.4502 24.3274 49.4598L24.3636 49.455L24.8481 49.2309L24.8722 49.2116L24.8818 49.1851L24.9228 48.1486L24.9156 48.1197L24.8915 48.0956L24.4479 47.8738Z" fill="url(#paint0_linear_3_15)"/>
<path d="M46.8405 3.79727L32.3782 41.1584C32.2351 41.5285 32.0029 41.8575 31.7022 42.1163C31.4015 42.375 31.0416 42.5556 30.6543 42.6419C30.2671 42.7282 29.8646 42.7176 29.4824 42.6111C29.1003 42.5045 28.7503 42.3052 28.4637 42.031L20.3117 34.2334L15.3125 39.2301C15.1439 39.3983 14.9291 39.5127 14.6955 39.5589C14.4618 39.6051 14.2197 39.581 13.9997 39.4897C13.7797 39.3984 13.5917 39.244 13.4594 39.0459C13.3271 38.8478 13.2565 38.615 13.2565 38.3768V27.4842L0.744101 15.5166C0.43365 15.2196 0.20823 14.845 0.0911776 14.4316C-0.0258747 14.0182 -0.030304 13.5811 0.0783483 13.1654C0.187001 12.7497 0.404785 12.3706 0.709155 12.0674C1.01352 11.7641 1.39341 11.5477 1.8095 11.4406L43.9914 0.593852C44.4203 0.483995 44.8711 0.494362 45.2945 0.623816C45.7178 0.75327 46.0973 0.99681 46.3914 1.32772C46.6854 1.65864 46.8827 2.06415 46.9615 2.49977C47.0403 2.93539 46.9976 3.38431 46.8381 3.79727H46.8405ZM40.976 6.54512L14.5388 23.7819L18.7208 27.7831L40.976 6.54512Z" fill="url(#paint1_linear_3_15)"/>
<defs>
<linearGradient id="paint0_linear_3_15" x1="25.294" y1="47.8668" x2="25.294" y2="49.4815" gradientUnits="userSpaceOnUse">
<stop stop-color="#FBB34C"/>
<stop offset="1" stop-color="#F77F00"/>
</linearGradient>
<linearGradient id="paint1_linear_3_15" x1="23.5" y1="0.518456" x2="23.5" y2="42.6997" gradientUnits="userSpaceOnUse">
<stop stop-color="#FBB34C"/>
<stop offset="1" stop-color="#F77F00"/>
</linearGradient>
</defs>
</svg>
